<svg width="151" height="88" viewBox="0 0 151 88" fill="none" xmlns="http://www.w3.org/2000/svg">
<g filter="url(#filter0_i_75_1093)">
<path d="M10.9773 56.0682V71H2.64205V36.0909H10.7045V49.625H10.9943C11.5852 48.0114 12.5511 46.75 13.892 45.8409C15.2443 44.9318 16.8977 44.4773 18.8523 44.4773C20.6932 44.4773 22.2955 44.8864 23.6591 45.7045C25.0227 46.5114 26.0795 47.6534 26.8295 49.1307C27.5909 50.608 27.9659 52.3352 27.9545 54.3125V71H19.6193V55.9489C19.6307 54.4943 19.267 53.358 18.5284 52.5398C17.7898 51.7216 16.75 51.3125 15.4091 51.3125C14.5341 51.3125 13.7614 51.5057 13.0909 51.892C12.4318 52.267 11.9148 52.8068 11.5398 53.5114C11.1761 54.2159 10.9886 55.0682 10.9773 56.0682ZM40.5384 71.4432C38.8679 71.4432 37.3849 71.1648 36.0895 70.608C34.8054 70.0398 33.7884 69.1875 33.0384 68.0511C32.2997 66.9034 31.9304 65.4659 31.9304 63.7386C31.9304 62.2841 32.1861 61.0568 32.6974 60.0568C33.2088 59.0568 33.9134 58.2443 34.8111 57.6193C35.7088 56.9943 36.7429 56.5227 37.9134 56.2045C39.0838 55.875 40.3338 55.6534 41.6634 55.5398C43.152 55.4034 44.3509 55.2614 45.2599 55.1136C46.169 54.9545 46.8281 54.733 47.2372 54.4489C47.6577 54.1534 47.8679 53.7386 47.8679 53.2045V53.1193C47.8679 52.2443 47.5668 51.5682 46.9645 51.0909C46.3622 50.6136 45.5497 50.375 44.527 50.375C43.4247 50.375 42.5384 50.6136 41.8679 51.0909C41.1974 51.5682 40.7713 52.2273 40.5895 53.0682L32.902 52.7955C33.1293 51.2045 33.7145 49.7841 34.6577 48.5341C35.6122 47.2727 36.919 46.2841 38.5781 45.5682C40.2486 44.8409 42.2543 44.4773 44.5952 44.4773C46.2656 44.4773 47.8054 44.6761 49.2145 45.0739C50.6236 45.4602 51.8509 46.0284 52.8963 46.7784C53.9418 47.517 54.7486 48.4261 55.3168 49.5057C55.8963 50.5852 56.1861 51.8182 56.1861 53.2045V71H48.3452V67.3523H48.1406C47.6747 68.2386 47.0781 68.9886 46.3509 69.6023C45.6349 70.2159 44.7884 70.6761 43.8111 70.983C42.8452 71.2898 41.7543 71.4432 40.5384 71.4432ZM43.1122 65.9886C44.0099 65.9886 44.8168 65.8068 45.5327 65.4432C46.2599 65.0795 46.8395 64.5795 47.2713 63.9432C47.7031 63.2955 47.919 62.5455 47.919 61.6932V59.2045C47.6804 59.3295 47.3906 59.4432 47.0497 59.5455C46.7202 59.6477 46.3565 59.7443 45.9588 59.8352C45.5611 59.9261 45.152 60.0057 44.7315 60.0739C44.3111 60.142 43.9077 60.2045 43.5213 60.2614C42.7372 60.3864 42.0668 60.5795 41.5099 60.8409C40.9645 61.1023 40.544 61.4432 40.2486 61.8636C39.9645 62.2727 39.8224 62.7614 39.8224 63.3295C39.8224 64.1932 40.1293 64.8523 40.7429 65.3068C41.3679 65.7614 42.1577 65.9886 43.1122 65.9886ZM61.2827 71V36.0909H69.6179V49.3011H69.7884C70.1293 48.5057 70.6122 47.7386 71.2372 47C71.8736 46.2614 72.6804 45.6591 73.6577 45.1932C74.6463 44.7159 75.8281 44.4773 77.2031 44.4773C79.0213 44.4773 80.7202 44.9545 82.2997 45.9091C83.8906 46.8636 85.1747 48.3352 86.152 50.3239C87.1293 52.3125 87.6179 54.8466 87.6179 57.9261C87.6179 60.892 87.1463 63.375 86.2031 65.375C85.2713 67.375 84.0099 68.875 82.419 69.875C80.8395 70.875 79.0838 71.375 77.152 71.375C75.8338 71.375 74.6918 71.1591 73.7259 70.7273C72.7599 70.2955 71.9474 69.7273 71.2884 69.0227C70.6406 68.3182 70.1406 67.5625 69.7884 66.7557H69.5327V71H61.2827ZM69.4474 57.9091C69.4474 59.3182 69.6349 60.5455 70.0099 61.5909C70.3963 62.6364 70.9474 63.4489 71.6634 64.0284C72.3906 64.5966 73.2599 64.8807 74.2713 64.8807C75.294 64.8807 76.1634 64.5966 76.8793 64.0284C77.5952 63.4489 78.1349 62.6364 78.4986 61.5909C78.8736 60.5455 79.0611 59.3182 79.0611 57.9091C79.0611 56.5 78.8736 55.2784 78.4986 54.2443C78.1349 53.2102 77.5952 52.4091 76.8793 51.8409C76.1747 51.2727 75.3054 50.9886 74.2713 50.9886C73.2486 50.9886 72.3793 51.267 71.6634 51.8239C70.9474 52.3807 70.3963 53.1761 70.0099 54.2102C69.6349 55.2443 69.4474 56.4773 69.4474 57.9091ZM91.9858 71V44.8182H100.321V71H91.9858ZM96.1619 41.767C94.9915 41.767 93.9858 41.3807 93.1449 40.608C92.304 39.8239 91.8835 38.8807 91.8835 37.7784C91.8835 36.6875 92.304 35.7557 93.1449 34.983C93.9858 34.1989 94.9915 33.8068 96.1619 33.8068C97.3438 33.8068 98.3494 34.1989 99.179 34.983C100.02 35.7557 100.44 36.6875 100.44 37.7784C100.44 38.8807 100.02 39.8239 99.179 40.608C98.3494 41.3807 97.3438 41.767 96.1619 41.767ZM120.405 44.8182V50.9545H103.888V44.8182H120.405ZM107.348 38.5455H115.683V62.767C115.683 63.2784 115.763 63.6932 115.922 64.0114C116.092 64.3182 116.337 64.5398 116.655 64.6761C116.973 64.8011 117.354 64.8636 117.797 64.8636C118.115 64.8636 118.45 64.8352 118.803 64.7784C119.166 64.7102 119.439 64.6534 119.621 64.608L120.882 70.625C120.484 70.7386 119.922 70.8807 119.195 71.0511C118.479 71.2216 117.621 71.3295 116.621 71.375C114.666 71.4659 112.99 71.2386 111.592 70.6932C110.206 70.1364 109.143 69.2727 108.405 68.1023C107.678 66.9318 107.325 65.4602 107.348 63.6875V38.5455ZM147.188 52.8125L139.534 53.017C139.455 52.4716 139.239 51.9886 138.886 51.5682C138.534 51.1364 138.074 50.8011 137.506 50.5625C136.949 50.3125 136.301 50.1875 135.562 50.1875C134.597 50.1875 133.773 50.3807 133.091 50.767C132.42 51.1534 132.091 51.6761 132.102 52.3352C132.091 52.8466 132.295 53.2898 132.716 53.6648C133.148 54.0398 133.915 54.3409 135.017 54.5682L140.062 55.5227C142.676 56.0227 144.619 56.8523 145.892 58.0114C147.176 59.1705 147.824 60.7045 147.835 62.6136C147.824 64.4091 147.29 65.9716 146.233 67.3011C145.188 68.6307 143.756 69.6648 141.938 70.4034C140.119 71.1307 138.04 71.4943 135.699 71.4943C131.96 71.4943 129.011 70.7273 126.852 69.1932C124.705 67.6477 123.477 65.5795 123.17 62.9886L131.403 62.7841C131.585 63.7386 132.057 64.4659 132.818 64.9659C133.58 65.4659 134.551 65.7159 135.733 65.7159C136.801 65.7159 137.67 65.517 138.341 65.1193C139.011 64.7216 139.352 64.1932 139.364 63.5341C139.352 62.9432 139.091 62.4716 138.58 62.1193C138.068 61.7557 137.267 61.4716 136.176 61.267L131.608 60.3977C128.983 59.9205 127.028 59.0398 125.744 57.7557C124.46 56.4602 123.824 54.8125 123.835 52.8125C123.824 51.0625 124.29 49.5682 125.233 48.3295C126.176 47.0795 127.517 46.125 129.256 45.4659C130.994 44.8068 133.045 44.4773 135.409 44.4773C138.955 44.4773 141.75 45.2216 143.795 46.7102C145.841 48.1875 146.972 50.2216 147.188 52.8125ZM4.48153 78.9077C4.45786 78.6473 4.35251 78.4448 4.16548 78.3004C3.98082 78.1536 3.71686 78.0803 3.37358 78.0803C3.14631 78.0803 2.95691 78.1098 2.8054 78.169C2.65388 78.2282 2.54025 78.3099 2.46449 78.4141C2.38873 78.5159 2.34967 78.633 2.3473 78.7656C2.34257 78.8745 2.36387 78.9704 2.41122 79.0533C2.46094 79.1361 2.53196 79.2095 2.62429 79.2734C2.71899 79.335 2.83262 79.3894 2.9652 79.4368C3.09777 79.4841 3.24692 79.5256 3.41264 79.5611L4.03764 79.7031C4.39749 79.7812 4.71473 79.8854 4.98935 80.0156C5.26634 80.1458 5.49834 80.3009 5.68537 80.4808C5.87476 80.6607 6.01799 80.8679 6.11506 81.1023C6.21212 81.3366 6.26184 81.5994 6.2642 81.8906C6.26184 82.3499 6.14583 82.7441 5.91619 83.0732C5.68655 83.4022 5.3563 83.6544 4.92543 83.8295C4.49692 84.0047 3.97964 84.0923 3.37358 84.0923C2.76515 84.0923 2.23485 84.0012 1.78267 83.8189C1.33049 83.6366 0.97893 83.3596 0.727983 82.9879C0.477036 82.6162 0.348011 82.1463 0.340909 81.5781H2.02415C2.03835 81.8125 2.10109 82.0078 2.21236 82.1641C2.32363 82.3203 2.47633 82.4387 2.67045 82.5192C2.86695 82.5997 3.09422 82.6399 3.35227 82.6399C3.58902 82.6399 3.79025 82.608 3.95597 82.544C4.12405 82.4801 4.25308 82.3913 4.34304 82.2777C4.433 82.1641 4.47917 82.0339 4.48153 81.8871C4.47917 81.7498 4.43655 81.6326 4.35369 81.5355C4.27083 81.4361 4.14299 81.3509 3.97017 81.2798C3.79972 81.2064 3.58191 81.139 3.31676 81.0774L2.55682 80.8999C1.92708 80.7554 1.43111 80.5223 1.06889 80.2003C0.706676 79.8759 0.526752 79.438 0.529119 78.8864C0.526752 78.4366 0.647491 78.0424 0.891335 77.7038C1.13518 77.3653 1.47254 77.1013 1.90341 76.9119C2.33428 76.7225 2.82552 76.6278 3.37713 76.6278C3.94058 76.6278 4.42945 76.7237 4.84375 76.9155C5.26042 77.1049 5.58357 77.3712 5.81321 77.7145C6.04285 78.0578 6.16004 78.4555 6.16477 78.9077H4.48153ZM9.7017 84.103C9.13116 84.103 8.63873 83.9905 8.22443 83.7656C7.8125 83.5384 7.49527 83.2152 7.27273 82.7962C7.05256 82.3748 6.94247 81.8741 6.94247 81.294C6.94247 80.7306 7.05374 80.2382 7.27628 79.8168C7.49882 79.393 7.8125 79.0639 8.21733 78.8295C8.62216 78.5928 9.0992 78.4744 9.64844 78.4744C10.0367 78.4744 10.3918 78.5348 10.7138 78.6555C11.0357 78.7763 11.3139 78.955 11.5483 79.1918C11.7827 79.4285 11.965 79.7209 12.0952 80.0689C12.2254 80.4145 12.2905 80.8111 12.2905 81.2585V81.6918H7.54972V80.6832H10.6747C10.6723 80.4986 10.6286 80.334 10.5433 80.1896C10.4581 80.0452 10.3409 79.9328 10.1918 79.8523C10.045 79.7694 9.87571 79.728 9.68395 79.728C9.48982 79.728 9.31581 79.7718 9.16193 79.8594C9.00805 79.9446 8.88613 80.0618 8.79616 80.2109C8.7062 80.3577 8.65885 80.5246 8.65412 80.7116V81.7379C8.65412 81.9605 8.69792 82.1558 8.78551 82.3239C8.87311 82.4896 8.9974 82.6186 9.15838 82.7109C9.31937 82.8033 9.51113 82.8494 9.73366 82.8494C9.88755 82.8494 10.0272 82.8281 10.1527 82.7855C10.2782 82.7429 10.3859 82.6802 10.4759 82.5973C10.5658 82.5144 10.6333 82.4126 10.6783 82.2919L12.2727 82.3381C12.2064 82.6955 12.0608 83.0069 11.8359 83.272C11.6134 83.5348 11.321 83.7396 10.9588 83.8864C10.5966 84.0308 10.1776 84.103 9.7017 84.103ZM16.6966 81.6456V78.5455H18.4295V84H16.7747V82.9844H16.7179C16.5971 83.3182 16.3912 83.5833 16.1 83.7798C15.8111 83.974 15.4619 84.071 15.0524 84.071C14.6807 84.071 14.354 83.9858 14.0723 83.8153C13.7905 83.6449 13.5716 83.407 13.4153 83.1016C13.2591 82.7938 13.1797 82.4339 13.1774 82.022V78.5455H14.9139V81.6811C14.9163 81.977 14.9944 82.2102 15.1483 82.3807C15.3021 82.5511 15.5117 82.6364 15.7768 82.6364C15.9496 82.6364 16.1047 82.5985 16.242 82.5227C16.3817 82.4446 16.4918 82.3321 16.5723 82.1854C16.6551 82.0362 16.6966 81.8563 16.6966 81.6456ZM23.6754 84.0781C23.273 84.0781 22.9072 83.974 22.5781 83.7656C22.2491 83.5573 21.9863 83.2448 21.7898 82.8281C21.5933 82.4115 21.495 81.8942 21.495 81.2763C21.495 80.6347 21.5968 80.1068 21.8004 79.6925C22.004 79.2782 22.2704 78.9716 22.5994 78.7727C22.9309 78.5739 23.2872 78.4744 23.6683 78.4744C23.9548 78.4744 24.1998 78.5241 24.4034 78.6236C24.607 78.7206 24.7751 78.8461 24.9077 79C25.0402 79.1539 25.1409 79.3137 25.2095 79.4794H25.245V76.7273H26.9815V84H25.2628V83.1158H25.2095C25.1361 83.2839 25.032 83.4413 24.897 83.5881C24.7621 83.7348 24.5928 83.8532 24.3892 83.9432C24.188 84.0331 23.95 84.0781 23.6754 84.0781ZM24.2791 82.7251C24.4898 82.7251 24.6697 82.666 24.8189 82.5476C24.968 82.4268 25.0829 82.2576 25.1634 82.0398C25.2438 81.822 25.2841 81.5663 25.2841 81.2727C25.2841 80.9744 25.2438 80.7176 25.1634 80.5021C25.0852 80.2867 24.9704 80.121 24.8189 80.005C24.6697 79.889 24.4898 79.831 24.2791 79.831C24.0637 79.831 23.8814 79.8902 23.7322 80.0085C23.5831 80.1269 23.4695 80.2938 23.3913 80.5092C23.3156 80.7247 23.2777 80.9792 23.2777 81.2727C23.2777 81.5663 23.3168 81.822 23.3949 82.0398C23.473 82.2576 23.5855 82.4268 23.7322 82.5476C23.8814 82.666 24.0637 82.7251 24.2791 82.7251ZM28.0797 84V78.5455H29.8162V84H28.0797ZM28.9498 77.9098C28.7059 77.9098 28.4964 77.8293 28.3212 77.6683C28.146 77.505 28.0584 77.3085 28.0584 77.0788C28.0584 76.8516 28.146 76.6574 28.3212 76.4964C28.4964 76.3331 28.7059 76.2514 28.9498 76.2514C29.196 76.2514 29.4055 76.3331 29.5783 76.4964C29.7535 76.6574 29.8411 76.8516 29.8411 77.0788C29.8411 77.3085 29.7535 77.505 29.5783 77.6683C29.4055 77.8293 29.196 77.9098 28.9498 77.9098ZM32.4592 84.0923C32.1112 84.0923 31.8022 84.0343 31.5323 83.9183C31.2648 83.8 31.0529 83.6224 30.8967 83.3857C30.7428 83.1465 30.6658 82.8471 30.6658 82.4872C30.6658 82.1842 30.7191 81.9285 30.8256 81.7202C30.9322 81.5118 31.079 81.3426 31.266 81.2124C31.453 81.0821 31.6684 80.9839 31.9123 80.9176C32.1561 80.849 32.4165 80.8028 32.6935 80.7791C33.0037 80.7507 33.2534 80.7211 33.4428 80.6903C33.6322 80.6572 33.7695 80.611 33.8548 80.5518C33.9424 80.4903 33.9862 80.4039 33.9862 80.2926V80.2749C33.9862 80.0926 33.9234 79.9517 33.7979 79.8523C33.6725 79.7528 33.5032 79.7031 33.2901 79.7031C33.0605 79.7031 32.8758 79.7528 32.7362 79.8523C32.5965 79.9517 32.5077 80.089 32.4698 80.2642L30.8683 80.2074C30.9156 79.8759 31.0375 79.58 31.234 79.3196C31.4329 79.0568 31.7051 78.8509 32.0508 78.7017C32.3988 78.5502 32.8166 78.4744 33.3043 78.4744C33.6523 78.4744 33.9731 78.5159 34.2667 78.5987C34.5603 78.6792 34.8159 78.7976 35.0337 78.9538C35.2515 79.1077 35.4196 79.2971 35.538 79.522C35.6587 79.7469 35.7191 80.0038 35.7191 80.2926V84H34.0856V83.2401H34.043C33.9459 83.4247 33.8216 83.581 33.6701 83.7088C33.521 83.8366 33.3446 83.9325 33.141 83.9964C32.9397 84.0604 32.7125 84.0923 32.4592 84.0923ZM32.9954 82.956C33.1824 82.956 33.3505 82.9181 33.4996 82.8423C33.6512 82.7666 33.7719 82.6624 33.8619 82.5298C33.9518 82.3949 33.9968 82.2386 33.9968 82.0611V81.5426C33.9471 81.5687 33.8867 81.5923 33.8157 81.6136C33.747 81.6349 33.6713 81.6551 33.5884 81.674C33.5056 81.6929 33.4203 81.7095 33.3327 81.7237C33.2451 81.7379 33.1611 81.7509 33.0806 81.7628C32.9173 81.7888 32.7776 81.8291 32.6616 81.8835C32.5479 81.938 32.4603 82.009 32.3988 82.0966C32.3396 82.1818 32.31 82.2836 32.31 82.402C32.31 82.5819 32.3739 82.7192 32.5018 82.8139C32.632 82.9086 32.7965 82.956 32.9954 82.956ZM41.479 84.103C40.9085 84.103 40.4161 83.9905 40.0018 83.7656C39.5898 83.5384 39.2726 83.2152 39.0501 82.7962C38.8299 82.3748 38.7198 81.8741 38.7198 81.294C38.7198 80.7306 38.8311 80.2382 39.0536 79.8168C39.2762 79.393 39.5898 79.0639 39.9947 78.8295C40.3995 78.5928 40.8765 78.4744 41.4258 78.4744C41.814 78.4744 42.1692 78.5348 42.4911 78.6555C42.8131 78.7763 43.0913 78.955 43.3256 79.1918C43.56 79.4285 43.7423 79.7209 43.8725 80.0689C44.0027 80.4145 44.0678 80.8111 44.0678 81.2585V81.6918H39.3271V80.6832H42.4521C42.4497 80.4986 42.4059 80.334 42.3207 80.1896C42.2354 80.0452 42.1183 79.9328 41.9691 79.8523C41.8223 79.7694 41.6531 79.728 41.4613 79.728C41.2672 79.728 41.0932 79.7718 40.9393 79.8594C40.7854 79.9446 40.6635 80.0618 40.5735 80.2109C40.4835 80.3577 40.4362 80.5246 40.4315 80.7116V81.7379C40.4315 81.9605 40.4753 82.1558 40.5629 82.3239C40.6504 82.4896 40.7747 82.6186 40.9357 82.7109C41.0967 82.8033 41.2885 82.8494 41.511 82.8494C41.6649 82.8494 41.8046 82.8281 41.93 82.7855C42.0555 82.7429 42.1632 82.6802 42.2532 82.5973C42.3432 82.5144 42.4106 82.4126 42.4556 82.2919L44.0501 82.3381C43.9838 82.6955 43.8382 83.0069 43.6133 83.272C43.3907 83.5348 43.0984 83.7396 42.7362 83.8864C42.3739 84.0308 41.9549 84.103 41.479 84.103ZM44.9547 84V78.5455H46.606V79.5469H46.6664C46.78 79.2154 46.9718 78.9538 47.2417 78.7621C47.5115 78.5703 47.8335 78.4744 48.2076 78.4744C48.5864 78.4744 48.9107 78.5715 49.1806 78.7656C49.4505 78.9598 49.6221 79.2202 49.6955 79.5469H49.7523C49.8541 79.2225 50.053 78.9633 50.3489 78.7692C50.6448 78.5727 50.994 78.4744 51.3965 78.4744C51.9126 78.4744 52.3316 78.6402 52.6536 78.9716C52.9756 79.3007 53.1365 79.7528 53.1365 80.3281V84H51.4V80.7259C51.4 80.4536 51.3302 80.2464 51.1905 80.1044C51.0508 79.96 50.8697 79.8878 50.6472 79.8878C50.4081 79.8878 50.2199 79.9659 50.0826 80.1222C49.9476 80.276 49.8801 80.4832 49.8801 80.7436V84H48.2111V80.7081C48.2111 80.4548 48.1425 80.2547 48.0051 80.108C47.8678 79.9612 47.6867 79.8878 47.4618 79.8878C47.3103 79.8878 47.1766 79.9245 47.0605 79.9979C46.9445 80.0689 46.8534 80.1707 46.7871 80.3033C46.7232 80.4358 46.6912 80.5921 46.6912 80.772V84H44.9547ZM58.3532 84.0781C57.9507 84.0781 57.5849 83.974 57.2559 83.7656C56.9268 83.5573 56.664 83.2448 56.4675 82.8281C56.271 82.4115 56.1728 81.8942 56.1728 81.2763C56.1728 80.6347 56.2746 80.1068 56.4782 79.6925C56.6818 79.2782 56.9481 78.9716 57.2772 78.7727C57.6086 78.5739 57.9649 78.4744 58.3461 78.4744C58.6325 78.4744 58.8775 78.5241 59.0811 78.6236C59.2847 78.7206 59.4528 78.8461 59.5854 79C59.718 79.1539 59.8186 79.3137 59.8873 79.4794H59.9228V76.7273H61.6593V84H59.9405V83.1158H59.8873C59.8139 83.2839 59.7097 83.4413 59.5748 83.5881C59.4398 83.7348 59.2705 83.8532 59.0669 83.9432C58.8657 84.0331 58.6278 84.0781 58.3532 84.0781ZM58.9569 82.7251C59.1676 82.7251 59.3475 82.666 59.4966 82.5476C59.6458 82.4268 59.7606 82.2576 59.8411 82.0398C59.9216 81.822 59.9618 81.5663 59.9618 81.2727C59.9618 80.9744 59.9216 80.7176 59.8411 80.5021C59.763 80.2867 59.6481 80.121 59.4966 80.005C59.3475 79.889 59.1676 79.831 58.9569 79.831C58.7414 79.831 58.5591 79.8902 58.41 80.0085C58.2608 80.1269 58.1472 80.2938 58.0691 80.5092C57.9933 80.7247 57.9554 80.9792 57.9554 81.2727C57.9554 81.5663 57.9945 81.822 58.0726 82.0398C58.1507 82.2576 58.2632 82.4268 58.41 82.5476C58.5591 82.666 58.7414 82.7251 58.9569 82.7251ZM62.7575 84V78.5455H64.494V84H62.7575ZM63.6275 77.9098C63.3836 77.9098 63.1741 77.8293 62.9989 77.6683C62.8237 77.505 62.7362 77.3085 62.7362 77.0788C62.7362 76.8516 62.8237 76.6574 62.9989 76.4964C63.1741 76.3331 63.3836 76.2514 63.6275 76.2514C63.8737 76.2514 64.0832 76.3331 64.256 76.4964C64.4312 76.6574 64.5188 76.8516 64.5188 77.0788C64.5188 77.3085 64.4312 77.505 64.256 77.6683C64.0832 77.8293 63.8737 77.9098 63.6275 77.9098ZM67.1369 84.0923C66.7889 84.0923 66.4799 84.0343 66.21 83.9183C65.9425 83.8 65.7306 83.6224 65.5744 83.3857C65.4205 83.1465 65.3436 82.8471 65.3436 82.4872C65.3436 82.1842 65.3968 81.9285 65.5034 81.7202C65.6099 81.5118 65.7567 81.3426 65.9437 81.2124C66.1307 81.0821 66.3462 80.9839 66.59 80.9176C66.8339 80.849 67.0943 80.8028 67.3713 80.7791C67.6814 80.7507 67.9312 80.7211 68.1206 80.6903C68.31 80.6572 68.4473 80.611 68.5325 80.5518C68.6201 80.4903 68.6639 80.4039 68.6639 80.2926V80.2749C68.6639 80.0926 68.6011 79.9517 68.4757 79.8523C68.3502 79.7528 68.1809 79.7031 67.9679 79.7031C67.7382 79.7031 67.5536 79.7528 67.4139 79.8523C67.2742 79.9517 67.1854 80.089 67.1475 80.2642L65.546 80.2074C65.5933 79.8759 65.7153 79.58 65.9118 79.3196C66.1106 79.0568 66.3829 78.8509 66.7285 78.7017C67.0765 78.5502 67.4944 78.4744 67.9821 78.4744C68.3301 78.4744 68.6509 78.5159 68.9444 78.5987C69.238 78.6792 69.4937 78.7976 69.7115 78.9538C69.9293 79.1077 70.0974 79.2971 70.2157 79.522C70.3365 79.7469 70.3968 80.0038 70.3968 80.2926V84H68.7633V83.2401H68.7207C68.6236 83.4247 68.4993 83.581 68.3478 83.7088C68.1987 83.8366 68.0223 83.9325 67.8187 83.9964C67.6175 84.0604 67.3902 84.0923 67.1369 84.0923ZM67.6731 82.956C67.8601 82.956 68.0282 82.9181 68.1774 82.8423C68.3289 82.7666 68.4496 82.6624 68.5396 82.5298C68.6296 82.3949 68.6745 82.2386 68.6745 82.0611V81.5426C68.6248 81.5687 68.5645 81.5923 68.4934 81.6136C68.4248 81.6349 68.349 81.6551 68.2662 81.674C68.1833 81.6929 68.0981 81.7095 68.0105 81.7237C67.9229 81.7379 67.8388 81.7509 67.7583 81.7628C67.595 81.7888 67.4553 81.8291 67.3393 81.8835C67.2257 81.938 67.1381 82.009 67.0765 82.0966C67.0173 82.1818 66.9877 82.2836 66.9877 82.402C66.9877 82.5819 67.0517 82.7192 67.1795 82.8139C67.3097 82.9086 67.4743 82.956 67.6731 82.956ZM73.5005 76.7273L73.3372 81.7734H71.8777L71.7143 76.7273H73.5005ZM72.6056 84.103C72.3523 84.103 72.1345 84.013 71.9522 83.8331C71.7723 83.6532 71.6824 83.4354 71.6824 83.1797C71.6824 82.9287 71.7723 82.7145 71.9522 82.5369C72.1345 82.357 72.3523 82.267 72.6056 82.267C72.8495 82.267 73.0637 82.357 73.2484 82.5369C73.4354 82.7145 73.5289 82.9287 73.5289 83.1797C73.5289 83.3501 73.4851 83.5052 73.3975 83.6449C73.3123 83.7846 73.1999 83.8958 73.0602 83.9787C72.9229 84.0616 72.7714 84.103 72.6056 84.103Z" fill="#00D1FF"/>
</g>
<rect x="0.5" y="0.5" width="15" height="15" rx="3.5" fill="#38BDF8" stroke="#27272A"/>
<rect x="20.5" y="0.5" width="15" height="15" rx="3.5" fill="#0EA5E9" stroke="#6D28D9"/>
<rect x="40.5" y="0.5" width="15" height="15" rx="3.5" fill="#0284C7" stroke="#7C3AED"/>
<rect x="60.5" y="0.5" width="15" height="15" rx="3.5" fill="#0369A1" stroke="#8B5CF6"/>
<rect x="80.5" y="0.5" width="15" height="15" rx="3.5" fill="#155E75" stroke="#A78BFA"/>
<rect x="100.5" y="0.5" width="15" height="15" rx="3.5" fill="#164E63" stroke="#C4B5FD"/>
<defs>
<filter id="filter0_i_75_1093" x="0.340912" y="33.8068" width="147.494" height="54.2962" filterUnits="userSpaceOnUse" color-interpolation-filters="sRGB">
<feFlood flood-opacity="0" result="BackgroundImageFix"/>
<feBlend mode="normal" in="SourceGraphic" in2="BackgroundImageFix" result="shape"/>
<feColorMatrix in="SourceAlpha" type="matrix" values="0 0 0 0 0 0 0 0 0 0 0 0 0 0 0 0 0 0 127 0" result="hardAlpha"/>
<feOffset dy="4"/>
<feGaussianBlur stdDeviation="2"/>
<feComposite in2="hardAlpha" operator="arithmetic" k2="-1" k3="1"/>
<feColorMatrix type="matrix" values="0 0 0 0 0 0 0 0 0 0 0 0 0 0 0 0 0 0 0.25 0"/>
<feBlend mode="normal" in2="shape" result="effect1_innerShadow_75_1093"/>
</filter>
</defs>
</svg>
